<svg xmlns="http://www.w3.org/2000/svg" width="78" height="20"><path fill="#918f8f" d="M30.39 18.972V.808h5.035v13.753h8.797v4.411z"/><path fill="#918f8f" d="M55.142 3.181C53.284 1.357 50.96.442 48.175.442c-2.784 0-5.12.921-6.995 2.75-1.876 1.836-2.813 4.07-2.813 6.7 0 .546.04 1.07.125 1.58h5.268a5.08 5.08 0 01-.233-1.58c0-1.369.432-2.528 1.284-3.477.858-.955 1.96-1.427 3.313-1.427 1.347 0 2.461.477 3.347 1.438.881.96 1.324 2.114 1.324 3.466 0 1.364-.432 2.524-1.284 3.473-.858.954-1.972 1.431-3.336 1.431-.216 0-.426-.01-.63-.039v4.563c.192.011.386.017.58.017 2.783 0 5.113-.92 6.99-2.75 1.88-1.836 2.817-4.069 2.817-6.695 0-2.648-.932-4.887-2.79-6.71zM8.1 19.102L.73.808h5.633l4.124 11.495L14.614.808h5.528l-7.37 18.294zM22.009.808h5.06v18.164h-5.06zM60.55 18.972V.808h8.59c2.647 0 4.619.649 5.916 1.946 1.073 1.073 1.61 2.509 1.61 4.308 0 2.664-1.246 4.524-3.737 5.579l4.333 6.33H71.45l-3.66-5.5h-2.205v5.5zm5.035-9.445h3.322c.847 0 1.509-.195 1.985-.584.476-.39.714-.93.714-1.622 0-.71-.238-1.245-.714-1.61-.476-.362-1.146-.544-2.011-.544h-3.296z"/></svg>