<svg xmlns="http://www.w3.org/2000/svg" width="25" height="25"><path fill="#918f8f" d="M17.429 7.438a.429.429 0 11-.858 0 .429.429 0 01.858 0z"/><path fill="#918f8f" d="M17.857 5.294c.71 0 1.286.576 1.286 1.286v11.143c0 .71-.576 1.286-1.286 1.286H6.714c-.71 0-1.285-.576-1.285-1.286V6.58c0-.71.575-1.286 1.285-1.286zm-5.571 11.143a4.285 4.285 0 100-8.571 4.285 4.285 0 000 8.571zM17 8.723a1.286 1.286 0 100-2.572 1.286 1.286 0 000 2.572z"/><path fill="#918f8f" d="M15.714 12.152a3.429 3.429 0 11-6.857 0 3.429 3.429 0 016.857 0z"/><path fill="#918f8f" d="M12.286.152c6.624.007 11.992 5.375 12 12 0 6.627-5.373 12-12 12-6.628 0-12-5.373-12-12 0-6.628 5.372-12 12-12zM20 6.58a2.146 2.146 0 00-2.143-2.143H6.714A2.146 2.146 0 004.571 6.58v11.143a2.146 2.146 0 002.143 2.143h11.143A2.146 2.146 0 0020 17.723z"/></svg>