<svg xmlns="http://www.w3.org/2000/svg" width="77" height="19"><path fill="#918f8f" d="M29.988 18.46V.294h5.034v13.753h8.797v4.411z"/><path fill="#918f8f" d="M54.74 2.668C52.88.844 50.556-.07 47.771-.07s-5.12.921-6.995 2.75c-1.876 1.836-2.813 4.07-2.813 6.7 0 .546.04 1.07.125 1.58h5.268a5.08 5.08 0 01-.233-1.58c0-1.369.431-2.529 1.284-3.478.858-.954 1.96-1.426 3.313-1.426 1.347 0 2.46.477 3.347 1.438.881.96 1.324 2.114 1.324 3.466 0 1.364-.432 2.523-1.284 3.472-.858.955-1.972 1.432-3.336 1.432-.216 0-.426-.01-.63-.039v4.563c.192.011.386.017.58.017 2.783 0 5.113-.92 6.99-2.75 1.88-1.836 2.817-4.069 2.817-6.695 0-2.648-.932-4.887-2.79-6.71zM7.697 18.589L.329.295H5.96l4.126 11.495L14.21.295h5.528l-7.37 18.294zM21.606.295h5.06v18.164h-5.06zm38.542 18.164V.295h8.589c2.647 0 4.619.649 5.916 1.946 1.073 1.073 1.61 2.509 1.61 4.308 0 2.664-1.246 4.524-3.737 5.579l4.333 6.33h-5.812l-3.659-5.5h-2.206v5.5zm5.034-9.445h3.322c.847 0 1.509-.195 1.985-.584.476-.39.714-.93.714-1.622 0-.71-.238-1.245-.714-1.61-.476-.362-1.147-.544-2.011-.544h-3.296z"/></svg>