<svg xmlns="http://www.w3.org/2000/svg" width="47" height="48"><path fill="#642281" d="M46.334 26.683l-.728-.993a3.131 3.131 0 01-.03-3.649l.709-1.004a3.13 3.13 0 00-1.082-4.563l-1.082-.58a3.117 3.117 0 01-1.603-3.276l.206-1.21a3.124 3.124 0 00-2.95-3.638l-1.23-.05a3.136 3.136 0 01-2.872-2.251l-.344-1.181a3.117 3.117 0 00-4.24-1.996l-1.13.482a3.118 3.118 0 01-3.561-.787l-.816-.915a3.118 3.118 0 00-4.682.04l-.806.924a3.127 3.127 0 01-3.551.836L15.4 2.4a3.13 3.13 0 00-4.21 2.065l-.324 1.19a3.106 3.106 0 01-2.833 2.291l-1.23.07a3.123 3.123 0 00-2.891 3.689l.227 1.209a3.12 3.12 0 01-1.554 3.295l-1.072.6A3.122 3.122 0 00.51 21.383l.728.993a3.131 3.131 0 01.03 3.648l-.71 1.003a3.132 3.132 0 001.083 4.564l1.082.58a3.115 3.115 0 011.603 3.276l-.206 1.21a3.124 3.124 0 002.95 3.639l1.23.049a3.136 3.136 0 012.872 2.253l.344 1.18a3.118 3.118 0 004.239 1.997l1.13-.482a3.116 3.116 0 013.562.787l.816.914c1.259 1.397 3.453 1.387 4.682-.04l.806-.924a3.13 3.13 0 013.55-.836l1.142.473a3.132 3.132 0 004.21-2.066l.324-1.19a3.107 3.107 0 012.833-2.292l1.229-.07a3.122 3.122 0 002.892-3.687l-.226-1.21a3.118 3.118 0 011.554-3.296l1.072-.6c1.642-.904 2.114-3.048 1.003-4.573z"/><path fill="none" stroke="#fff" stroke-miterlimit="20" d="M12.195 19.956a4.836 4.836 0 014.839-4.839 4.836 4.836 0 014.839 4.839 4.836 4.836 0 01-4.84 4.839 4.842 4.842 0 01-4.838-4.839z"/><path fill="#fff" d="M17.968 32.437a1.183 1.183 0 01-1.662.157 1.183 1.183 0 01-.158-1.662l12.698-15.294a1.182 1.182 0 011.82 1.505z"/><path fill="none" stroke="#fff" stroke-miterlimit="20" d="M29.79 32.939a4.836 4.836 0 01-4.839-4.84 4.836 4.836 0 014.84-4.838 4.836 4.836 0 014.838 4.839 4.836 4.836 0 01-4.839 4.839z"/></svg>