<svg xmlns="http://www.w3.org/2000/svg" width="77" height="20"><path fill="#918f8f" d="M30.128 19.05V.886h5.034V14.64h8.798v4.411z"/><path fill="#918f8f" d="M54.88 3.26C53.022 1.434 50.698.52 47.913.52c-2.785 0-5.12.921-6.995 2.75-1.876 1.836-2.813 4.07-2.813 6.7 0 .546.039 1.07.125 1.58h5.268a5.08 5.08 0 01-.233-1.58c0-1.369.43-2.529 1.284-3.478.858-.954 1.96-1.426 3.313-1.426 1.347 0 2.46.477 3.347 1.438.88.96 1.324 2.114 1.324 3.466 0 1.364-.432 2.523-1.284 3.472-.858.955-1.972 1.432-3.336 1.432-.216 0-.426-.01-.631-.039v4.563c.193.011.387.017.58.017 2.784 0 5.114-.92 6.99-2.75 1.88-1.836 2.818-4.069 2.818-6.695 0-2.648-.932-4.887-2.79-6.71zM7.838 19.18L.468.886H6.1l4.125 11.495L14.351.886h5.528L12.51 19.18zM21.747.886h5.06V19.05h-5.06zM60.289 19.05V.886h8.589c2.647 0 4.619.649 5.916 1.946 1.073 1.073 1.61 2.509 1.61 4.308 0 2.664-1.246 4.524-3.737 5.579L77 19.049h-5.812l-3.66-5.5h-2.205v5.5zm5.034-9.445h3.322c.847 0 1.509-.195 1.985-.584.476-.39.714-.93.714-1.622 0-.71-.238-1.245-.714-1.61-.476-.362-1.147-.544-2.011-.544h-3.296z"/></svg>